<?xml version="1.0" standalone="no"?>
<!DOCTYPE svg PUBLIC "-//W3C//DTD SVG 20010904//EN"
 "http://www.w3.org/TR/2001/REC-SVG-20010904/DTD/svg10.dtd">
<svg version="1.0" xmlns="http://www.w3.org/2000/svg"
 width="1280.000000pt" height="604.000000pt" viewBox="0 0 1280.000000 604.000000"
 preserveAspectRatio="xMidYMid meet">

<g transform="translate(0.000000,604.000000) scale(0.100000,-0.100000)"
fill="#000000" stroke="none">
<path d="M0 3020 l0 -3020 6400 0 6400 0 0 3020 0 3020 -6400 0 -6400 0 0
-3020z m6987 2744 c41 -31 48 -44 63 -119 14 -69 33 -95 69 -95 24 0 24 -1 9
-17 -19 -18 -76 -20 -108 -3 -11 6 -31 33 -45 59 -17 34 -33 52 -54 59 -16 6
-32 8 -35 5 -9 -10 -7 26 6 89 12 56 13 59 38 53 14 -4 40 -18 57 -31z m-1030
-59 c37 -19 74 -35 81 -35 6 0 12 -4 12 -10 0 -5 -19 -11 -42 -12 -24 -1 -63
-3 -88 -5 -80 -6 -94 -6 -153 1 -31 4 -55 12 -52 17 4 5 15 9 26 9 10 0 19 5
19 10 0 6 6 10 13 10 18 0 75 28 82 41 10 16 31 10 102 -26z m353 -10 c0 -59
68 -150 117 -158 12 -2 30 -10 40 -19 36 -30 47 -33 40 -9 -4 18 -2 21 11 16
9 -4 26 -10 37 -13 34 -9 45 -23 61 -78 8 -30 19 -56 24 -59 12 -7 119 100
130 131 11 28 30 31 36 6 7 -23 251 -168 278 -164 25 4 323 297 337 330 10 26
32 25 37 -1 2 -10 -5 -20 -16 -25 -29 -10 -326 -303 -332 -327 -8 -26 -40 -32
-46 -8 -6 22 -237 163 -267 163 -19 0 -147 -114 -147 -131 0 -3 20 -14 45 -23
41 -16 44 -20 39 -44 -4 -15 -8 -28 -9 -30 -2 -2 -35 6 -74 18 -44 13 -71 26
-71 35 0 12 -6 12 -37 -2 -25 -10 -52 -13 -81 -9 -68 9 -82 21 -82 67 0 48
-14 76 -86 176 -54 76 -59 93 -48 152 6 26 11 31 35 31 24 0 29 -4 29 -25z
m-760 -194 c8 -9 23 -15 32 -13 9 2 26 -6 37 -17 10 -10 22 -17 24 -14 9 8 68
-27 62 -37 -3 -5 -18 -9 -33 -9 -15 0 -90 -2 -167 -5 -145 -4 -219 2 -217 19
1 6 12 12 24 13 13 2 27 10 31 18 4 8 19 14 32 14 13 0 27 5 30 10 3 6 15 10
26 10 10 0 19 5 19 10 0 15 41 30 65 23 11 -2 27 -12 35 -22z m498 -219 c37
-28 40 -38 12 -47 -19 -6 -21 -14 -18 -87 l3 -81 80 -48 c95 -57 121 -60 154
-19 13 17 28 30 34 30 6 0 -3 -15 -21 -33 -18 -18 -32 -41 -32 -50 0 -21 -38
-23 -46 -2 -5 13 -152 105 -167 105 -4 0 -7 -104 -7 -231 l0 -232 81 7 c78 7
83 9 120 48 22 23 41 39 44 36 3 -2 -1 -30 -7 -61 -11 -51 -10 -59 5 -74 14
-15 21 -15 37 -5 10 6 26 9 34 6 8 -3 17 -1 20 4 3 5 -3 12 -14 15 -16 4 -20
14 -20 45 l0 40 43 2 c60 3 108 1 118 -6 5 -3 9 -15 10 -27 0 -21 1 -21 8 -2
7 18 9 18 26 -8 14 -22 25 -27 56 -27 50 0 57 14 20 41 -32 24 -48 59 -26 59
19 0 73 -47 80 -69 8 -25 108 -35 147 -15 24 12 27 12 41 -9 11 -17 38 -28
113 -46 55 -13 105 -26 112 -28 9 -4 12 23 12 115 0 113 -1 122 -22 136 l-21
15 24 21 c36 30 78 52 90 45 5 -4 23 -34 40 -68 l31 -61 -21 -14 c-19 -13 -21
-23 -21 -121 l0 -107 78 -38 c289 -142 398 -336 299 -531 -29 -59 -143 -164
-232 -214 -237 -136 -555 -205 -940 -205 -374 0 -636 53 -893 180 -94 47 -127
69 -192 133 -98 95 -124 146 -124 246 0 57 5 81 27 127 49 101 222 239 360
289 35 12 37 16 37 55 0 30 -5 45 -20 55 -18 13 -18 15 23 46 67 51 68 50 106
-22 18 -36 37 -65 41 -65 13 0 162 38 166 43 2 2 3 110 2 240 l-3 237 -157
-151 c-90 -86 -158 -159 -158 -169 0 -19 -25 -34 -41 -24 -5 3 -9 11 -9 18 0
15 -162 126 -199 135 -30 9 -39 29 -16 37 11 5 24 -2 38 -18 32 -38 173 -128
199 -128 17 0 70 46 186 163 158 158 162 163 162 204 0 31 -5 46 -21 56 -20
15 -20 15 16 86 40 79 39 79 113 23z m1365 18 c14 -11 34 -20 45 -20 11 0 25
-7 32 -15 7 -8 18 -15 24 -15 17 0 66 -24 66 -32 0 -6 -88 -18 -142 -19 -16 0
-36 0 -45 -1 -61 -1 -183 1 -207 4 -37 4 -48 28 -13 28 13 0 30 7 37 15 7 8
21 15 31 15 10 0 21 5 24 10 3 6 14 10 23 10 10 0 25 9 35 20 9 11 27 20 41
20 13 0 35 -9 49 -20z m-1743 -140 c11 -7 6 -8 -16 -4 -21 4 -34 1 -43 -10 -8
-9 -17 -16 -22 -16 -5 0 -27 -8 -49 -17 l-40 -18 38 -12 37 -12 -35 6 c-19 3
-38 7 -42 10 -15 8 -8 23 11 23 11 0 22 4 26 9 3 5 18 12 34 16 16 3 35 13 42
21 13 16 37 18 59 4z m78 -40 c39 -19 49 -40 19 -40 -8 0 -8 3 1 9 13 8 1 15
-73 42 -14 5 -15 7 -4 8 8 1 34 -8 57 -19z m1303 -26 c6 -8 17 -14 23 -14 7 0
34 -11 62 -24 42 -21 45 -25 24 -27 -14 -1 -36 -4 -50 -6 -55 -10 -261 -6
-272 5 -9 9 -7 13 8 18 10 3 50 21 88 39 69 33 95 35 117 9z m-1430 -22 c-13
-2 -27 0 -32 5 -6 6 3 7 23 4 28 -4 29 -6 9 -9z m109 8 c-34 -11 -60 -11 -35
0 11 5 29 8 40 8 16 0 15 -2 -5 -8z m1677 -146 c-3 -3 -12 -4 -19 -1 -8 3 -5
6 6 6 11 1 17 -2 13 -5z m73 -20 c0 -2 -7 -4 -15 -4 -8 0 -15 4 -15 10 0 5 7
7 15 4 8 -4 15 -8 15 -10z m30 -14 c0 -5 -2 -10 -4 -10 -3 0 -8 5 -11 10 -3 6
-1 10 4 10 6 0 11 -4 11 -10z m-195 -10 c-3 -5 -12 -10 -18 -10 -7 0 -6 4 3
10 19 12 23 12 15 0z m-40 -20 c3 -5 1 -10 -4 -10 -6 0 -11 5 -11 10 0 6 2 10
4 10 3 0 8 -4 11 -10z m295 0 c0 -5 -17 -11 -37 -12 -21 -1 -57 -3 -81 -4 -66
-3 -43 6 28 11 35 3 66 7 68 10 9 9 22 5 22 -5z m-229 -18 c-18 -2 -37 0 -42
5 -5 5 11 6 34 3 41 -4 41 -5 8 -8z m-841 -161 c0 -16 -6 -18 -38 -14 -21 3
-54 1 -74 -5 -32 -9 -37 -8 -41 9 -6 22 8 26 91 28 55 1 62 -1 62 -18z m1170
-2027 l0 -195 -32 3 -33 3 -3 180 c-1 98 0 185 2 192 3 7 19 13 36 13 l30 0 0
-196z m130 1 l0 -195 -35 0 -35 0 0 195 0 195 35 0 35 0 0 -195z m-3303 149
c16 -12 38 -36 51 -55 l24 -34 -37 -3 c-29 -3 -41 2 -64 27 -24 26 -36 31 -76
31 -40 0 -52 -5 -81 -34 -31 -31 -34 -40 -34 -91 0 -51 3 -60 34 -91 29 -29
41 -34 81 -34 40 0 52 5 76 31 23 25 35 30 64 27 l37 -3 -24 -34 c-33 -49 -69
-72 -121 -78 -67 -8 -113 4 -154 40 -44 38 -63 82 -63 141 0 78 39 142 105
172 44 21 147 14 182 -12z m2656 1 c59 -28 91 -83 91 -158 -1 -132 -67 -186
-231 -187 l-83 0 0 186 0 186 93 -4 c62 -3 105 -10 130 -23z m-2343 -63 c51
-25 80 -74 80 -135 0 -94 -55 -147 -154 -147 -48 0 -59 4 -89 33 -128 120 8
327 163 249z m327 1 c50 -23 63 -62 63 -183 l0 -100 -35 0 -35 0 0 100 c0 87
-3 103 -20 120 -11 11 -31 20 -45 20 -14 0 -34 -9 -45 -20 -17 -17 -20 -33
-20 -120 l0 -100 -35 0 -35 0 0 146 0 147 44 -5 c24 -3 50 -2 58 3 21 14 67
10 105 -8z m590 0 c46 -21 73 -67 73 -120 l0 -43 -105 0 c-111 0 -126 -8 -86
-44 27 -25 77 -23 104 2 25 23 87 31 87 11 0 -6 -17 -29 -39 -50 -36 -36 -43
-39 -96 -39 -95 0 -145 52 -145 150 0 65 21 105 68 129 46 25 93 26 139 4z
m273 -18 c0 -32 -2 -35 -29 -35 -48 0 -61 -30 -61 -137 l0 -93 -35 0 -35 0 0
146 0 147 44 -5 c24 -3 50 -2 58 3 7 5 23 9 36 9 19 0 22 -5 22 -35z m191 19
c29 -15 63 -70 53 -86 -3 -5 -18 -8 -33 -8 -20 0 -31 7 -39 25 -9 19 -19 25
-42 25 -35 0 -50 -24 -29 -45 8 -7 38 -20 66 -30 86 -27 107 -82 54 -136 -26
-25 -37 -29 -85 -29 -47 0 -60 4 -85 28 -16 15 -32 37 -36 50 -6 19 -3 22 25
22 20 0 38 -8 49 -21 28 -35 103 -24 89 13 -3 7 -33 22 -67 32 -65 19 -91 44
-91 84 0 73 96 115 171 76z m299 -2 c73 -36 101 -129 64 -208 -45 -95 -200
-100 -260 -9 -24 36 -23 121 1 163 22 37 86 72 130 72 17 0 46 -8 65 -18z
m275 -17 c0 -24 -5 -31 -25 -33 -51 -7 -60 -26 -60 -134 l0 -98 -35 0 -35 0 0
146 0 147 44 -5 c24 -3 50 -1 58 3 7 5 22 8 33 7 15 -2 20 -11 20 -33z m715
19 c108 -44 115 -215 10 -269 -16 -8 -51 -15 -77 -15 -90 0 -143 57 -143 153
0 54 31 105 80 129 43 22 78 23 130 2z m550 1 c17 -9 30 -11 30 -5 0 5 16 10
35 10 l35 0 0 -145 0 -145 -28 0 c-15 0 -33 5 -40 12 -9 9 -15 9 -24 0 -7 -7
-36 -12 -66 -12 -50 0 -58 3 -92 38 -116 116 8 320 150 247z m310 -20 c0 -30
-3 -35 -24 -35 -46 0 -56 -22 -56 -131 l0 -99 -35 0 -35 0 0 146 0 147 44 -5
c24 -3 50 -2 58 3 30 20 48 10 48 -26z m195 21 c36 -15 55 -42 55 -75 0 -17
-6 -21 -30 -21 -20 0 -33 6 -37 18 -12 32 -57 44 -80 21 -20 -20 -3 -37 50
-55 69 -22 97 -49 97 -91 0 -53 -37 -83 -100 -83 -57 0 -86 12 -112 44 -29 35
-23 56 16 56 26 0 36 -5 41 -20 4 -11 16 -21 28 -21 91 -5 86 38 -7 65 -67 20
-88 43 -84 92 5 68 85 102 163 70z m-3207 -101 c41 -113 30 -116 86 33 27 70
29 72 62 72 19 0 34 -2 34 -5 0 -3 -25 -68 -56 -145 l-56 -141 -35 3 c-35 3
-35 4 -83 123 -70 179 -69 167 -25 163 l38 -3 35 -100z m1752 -737 c58 -40 74
-71 78 -153 5 -94 -19 -150 -77 -183 -39 -22 -39 -22 -672 -22 -707 0 -678 -3
-726 69 -20 29 -23 47 -23 121 0 74 3 92 23 121 48 72 19 69 728 69 l636 0 33
-22z m20 -1243 c49 -25 60 -60 60 -190 0 -123 -11 -164 -49 -185 -13 -6 -255
-10 -708 -10 l-689 0 -27 28 c-27 28 -27 30 -27 166 0 75 5 146 10 156 27 50
19 49 733 50 578 0 672 -2 697 -15z"/>
<path d="M6395 4610 c-3 -5 1 -10 9 -10 8 0 18 5 21 10 3 6 -1 10 -9 10 -8 0
-18 -4 -21 -10z"/>
<path d="M6926 4271 c-11 -4 17 -7 65 -7 69 1 92 -3 127 -22 24 -12 40 -17 36
-11 -3 6 -25 20 -48 30 -42 19 -143 25 -180 10z"/>
<path d="M6869 4239 l-24 -20 28 17 c15 9 27 18 27 20 0 8 -8 4 -31 -17z"/>
<path d="M5747 4142 c-9 -4 20 -7 65 -7 66 0 93 -5 128 -22 l45 -22 -29 23
c-16 13 -42 27 -59 30 -39 8 -127 6 -150 -2z"/>
<path d="M5674 4098 l-19 -23 23 19 c12 11 22 21 22 23 0 8 -8 2 -26 -19z"/>
<path d="M7000 2654 l0 -126 62 4 c51 4 65 9 84 31 50 58 40 162 -19 197 -20
13 -50 20 -79 20 l-48 0 0 -126z"/>
<path d="M4693 2686 c-23 -20 -28 -32 -27 -70 1 -60 24 -86 75 -86 52 0 79 30
79 87 0 81 -69 119 -127 69z"/>
<path d="M5610 2690 c-33 -33 -24 -40 50 -40 76 0 91 14 48 44 -31 22 -74 20
-98 -4z"/>
<path d="M6373 2686 c-23 -20 -28 -32 -28 -69 0 -59 24 -87 76 -87 52 0 79 30
79 87 0 81 -69 119 -127 69z"/>
<path d="M7365 2685 c-33 -32 -35 -105 -5 -135 26 -26 80 -26 111 -1 19 15 24
29 24 66 0 39 -5 51 -28 71 -36 31 -71 31 -102 -1z"/>
<path d="M7929 2681 c-35 -35 -37 -72 -9 -118 17 -28 25 -33 59 -33 54 0 81
29 81 87 0 85 -74 121 -131 64z"/>
<path d="M6621 1784 c0 -11 3 -14 6 -6 3 7 2 16 -1 19 -3 4 -6 -2 -5 -13z"/>
<path d="M6622 1735 c0 -16 2 -22 5 -12 2 9 2 23 0 30 -3 6 -5 -1 -5 -18z"/>
<path d="M5722 653 c-29 -12 -42 -62 -42 -167 0 -116 10 -149 49 -166 18 -7
230 -10 694 -8 l669 3 19 24 c16 20 19 40 19 148 0 118 -1 125 -25 148 l-24
25 -673 -1 c-370 0 -679 -3 -686 -6z m363 -103 c23 -25 12 -39 -13 -17 -36 33
-72 14 -72 -38 0 -52 36 -71 72 -38 20 18 34 12 25 -11 -8 -19 -49 -30 -81
-22 -31 8 -51 61 -37 99 18 48 74 62 106 27z m569 -22 c8 -5 7 -11 -2 -20 -15
-15 -16 -50 0 -66 15 -15 4 -26 -17 -19 -10 4 -15 20 -15 47 0 33 -3 40 -20
40 -17 0 -20 -7 -20 -45 0 -33 -4 -45 -15 -45 -12 0 -15 13 -15 55 l0 55 34 0
c23 0 36 6 41 18 6 14 8 15 13 2 3 -8 10 -18 16 -22z m-448 -23 c14 -21 15
-31 6 -51 -22 -46 -85 -45 -96 2 -16 62 56 100 90 49z m101 13 c15 -12 18 -98
3 -98 -5 0 -10 18 -10 40 0 27 -5 43 -15 47 -22 8 -29 -2 -30 -44 -3 -61 -25
-52 -25 10 l0 54 32 1 c18 0 38 -4 45 -10z m64 -26 l17 -37 7 33 c7 30 21 49
30 40 9 -8 -29 -108 -41 -108 -11 0 -44 73 -44 98 0 24 15 11 31 -26z m151 21
c30 -27 22 -43 -23 -43 -28 0 -39 -4 -36 -12 2 -8 19 -12 42 -11 32 2 35 1 25
-12 -15 -18 -61 -20 -78 -3 -18 18 -15 75 6 87 25 15 43 13 64 -6z m232 1 c27
-27 20 -44 -19 -44 -26 0 -35 -4 -35 -16 0 -13 7 -15 37 -9 33 6 35 5 24 -9
-28 -34 -91 -9 -91 36 0 27 28 58 51 58 10 0 25 -7 33 -16z m86 7 c0 -5 -7
-11 -15 -15 -10 -3 -15 -19 -15 -46 0 -22 -4 -40 -10 -40 -5 0 -10 25 -10 55
0 52 1 55 25 55 14 0 25 -4 25 -9z"/>
<path d="M6144 496 c-10 -26 0 -51 21 -51 16 0 20 7 20 30 0 33 -30 49 -41 21z"/>
<path d="M6467 504 c-14 -14 -6 -24 19 -24 16 0 24 5 22 13 -5 14 -31 21 -41
11z"/>
<path d="M6707 503 c-14 -13 -6 -23 18 -23 18 0 23 4 19 15 -6 16 -26 20 -37
8z"/>
</g>
</svg>
